<?xml version="1.0" encoding="UTF-8"?>
<svg id="a" xmlns="http://www.w3.org/2000/svg" version="1.1" viewBox="0 0 51.21 14.77">
  <!-- Generator: Adobe Illustrator 30.2.1, SVG Export Plug-In . SVG Version: 2.1.1 Build 1)  -->
  <defs>
    <style>
      .st0 {
        fill: #262262;
      }
    </style>
  </defs>
  <path class="st0" d="M30.96,3.59c.38,0,.68-.11.9-.34.23-.23.34-.52.34-.89s-.11-.68-.34-.9c-.23-.23-.53-.34-.9-.34s-.67.11-.89.34c-.23.23-.34.53-.34.9s.11.67.34.89c.23.23.52.34.89.34Z"/>
  <path class="st0" d="M45.64,6.05c-.16-.35-.38-.66-.66-.9-.29-.25-.63-.44-1.04-.57s-.86-.2-1.37-.2c-.55,0-1.06.08-1.53.24-.47.16-.87.38-1.2.67-.34.29-.6.63-.79,1.03-.06.14-.12.27-.16.42,0,.01-.01.02-.01.03-.15.35-.3.72-.47,1.1-.17.38-.37.72-.62,1.02-.19.24-.41.43-.66.57s-.49.21-.73.21c-.32,0-.57-.13-.75-.4s-.27-.64-.27-1.11c0-.3.04-.63.12-.98.08-.35.19-.67.32-.96.14-.29.3-.53.49-.73.19-.19.4-.29.63-.29.18,0,.32.04.42.12.1.08.17.19.21.32.06.14.17.21.33.21.1,0,.2-.03.3-.1.1-.07.15-.17.15-.3,0-.06-.02-.14-.07-.23-.12-.24-.34-.44-.66-.6-.32-.16-.79-.24-1.43-.24-.52,0-1,.08-1.44.25-.43.17-.81.4-1.12.69-.31.29-.56.64-.73,1.05-.07.17-.13.34-.17.53-.03.07-.06.15-.1.24-.07.17-.15.36-.23.57-.09.21-.18.43-.29.66-.11.23-.21.43-.32.62-.11.19-.21.34-.3.46-.09.12-.18.18-.25.18-.03,0-.04-.05-.04-.14,0-.11.02-.28.05-.5.03-.22.07-.46.12-.72s.1-.51.16-.77c.06-.25.11-.48.15-.67.07-.33.15-.67.21-1,.07-.34.14-.67.2-1,0-.02.01-.05.01-.1,0-.11-.04-.2-.12-.28-.08-.07-.18-.11-.31-.11h-1.93c-.1,0-.19.03-.26.1-.07.06-.12.15-.14.25-.06.37-.13.81-.19,1.32-.03.25-.06.5-.07.76-.03.07-.08.19-.14.36-.07.17-.15.36-.23.57-.09.21-.18.43-.29.66-.11.23-.21.43-.32.62-.11.19-.21.34-.3.46-.09.12-.18.18-.25.18-.02,0-.03-.04-.03-.12,0-.16.03-.44.09-.84.06-.41.14-.88.23-1.42.1-.54.2-1.13.32-1.77.12-.64.23-1.26.35-1.88h.46c.12,0,.22-.04.3-.12.08-.08.12-.18.12-.29,0-.12-.04-.22-.12-.3-.08-.08-.18-.12-.3-.12h-.29c.05-.27.09-.52.14-.77.05-.24.09-.47.14-.68,0-.02.01-.05.01-.1,0-.11-.04-.2-.12-.28-.08-.07-.18-.11-.31-.11h-1.93c-.1,0-.19.03-.26.1-.07.06-.12.15-.14.25-.03.17-.07.38-.12.66-.05.27-.1.58-.16.93h-.5c-.11,0-.21.04-.29.12-.08.08-.12.18-.12.3,0,.11.04.21.12.29s.18.12.29.12h.37c-.07.52-.14,1.08-.19,1.66-.05.53-.08,1.05-.08,1.55-.03.08-.07.19-.13.33-.07.17-.15.36-.23.57-.09.21-.18.43-.29.66-.11.23-.21.43-.32.62s-.21.34-.3.46c-.09.12-.18.18-.25.18.05-.18.1-.4.16-.65s.12-.51.17-.79c.06-.28.1-.56.15-.84.04-.28.06-.54.06-.77,0-.66-.17-1.19-.5-1.59-.33-.4-.8-.59-1.4-.59-.4,0-.74.09-1.03.26-.29.18-.54.4-.75.68-.21.28-.39.59-.55.93-.15.35-.28.68-.39,1.02.02-.08.03-.16.05-.23.01-.07.03-.14.05-.21.07-.33.15-.67.21-1,.07-.34.14-.67.2-1,0-.02.01-.05.01-.1,0-.11-.04-.2-.12-.28-.08-.07-.18-.11-.31-.11h-1.93c-.1,0-.19.03-.26.1-.07.06-.12.15-.14.25-.07.47-.14.93-.2,1.4-.03.24-.05.49-.07.73-.03.07-.07.18-.12.31-.07.17-.15.36-.23.57-.09.21-.18.43-.29.66-.11.23-.21.43-.32.62-.11.19-.21.34-.3.46-.09.12-.18.18-.25.18-.03,0-.04-.05-.04-.14,0-.11.02-.28.05-.5.03-.22.07-.46.12-.72.05-.26.1-.51.16-.77.06-.25.11-.48.15-.67.07-.33.15-.67.21-1,.07-.34.14-.67.2-1,0-.02.01-.05.01-.1,0-.11-.04-.2-.12-.28-.08-.07-.18-.11-.31-.11h-1.93c-.1,0-.19.03-.26.1-.07.06-.12.15-.14.25-.05.29-.1.61-.15.99-.06.37-.09.77-.11,1.18-.07.18-.16.41-.26.66-.1.26-.22.52-.35.79-.18.4-.37.71-.55.95-.18.24-.35.36-.51.36-.14,0-.23-.09-.29-.26-.06-.17-.08-.39-.08-.67,0-.3.03-.65.08-1.04.06-.39.12-.77.19-1.15.07-.37.14-.71.2-1.02.06-.3.11-.52.14-.66,0-.02.01-.05.01-.1,0-.11-.04-.2-.12-.28-.08-.07-.18-.11-.31-.11h-1.93c-.1,0-.19.03-.26.1-.07.06-.12.15-.14.25-.06.37-.13.81-.19,1.32,0,.04,0,.07-.01.11-.02-.05-.03-.1-.05-.14-.13-.34-.32-.63-.56-.86-.24-.23-.52-.42-.86-.55-.33-.13-.7-.19-1.11-.19-.36,0-.69.05-.98.15s-.56.23-.79.41v-.03s.01-.02.01-.04,0-.05,0-.1c0-.11-.04-.2-.12-.28-.08-.07-.18-.11-.31-.11h-1.93c-.1,0-.19.03-.26.1-.07.06-.12.15-.14.25-.04.23-.09.55-.17.97-.08.42-.15.89-.23,1.41-.07.52-.14,1.07-.19,1.64-.06.57-.08,1.13-.08,1.69,0,.48.03.93.08,1.35.06.42.15.8.28,1.12.13.32.32.58.55.77.23.19.52.28.86.28.24,0,.41-.05.51-.14.1-.09.15-.19.15-.3s-.42-1.19-.15-2.62c.06-.35.13-.72.2-1.11.17.22.41.4.71.52.3.13.68.19,1.15.19.52,0,1-.08,1.44-.25.43-.17.81-.4,1.12-.7.31-.3.56-.66.73-1.07.03-.06.05-.13.07-.19.02.17.05.33.09.49.09.36.23.67.42.92s.43.45.73.59c.29.14.64.21,1.05.21.3,0,.57-.04.79-.12.22-.08.42-.19.59-.34.17-.15.33-.32.46-.52s.26-.43.38-.69c.09.48.27.88.52,1.2.26.32.64.48,1.13.48.45,0,.83-.15,1.15-.44.29-.28.58-.7.87-1.26.05.29.14.55.25.78.14.28.32.5.55.67.23.17.52.25.88.25.28,0,.47-.05.57-.14.11-.09.17-.19.19-.3.04-.15.09-.37.17-.66.08-.29.17-.62.29-.98.12-.36.24-.73.39-1.11.14-.38.29-.72.46-1.03.16-.31.33-.56.5-.76s.35-.3.51-.3c.12,0,.18.06.18.18,0,.08-.02.23-.07.44-.05.21-.1.45-.15.73-.06.28-.11.58-.15.9-.05.32-.07.64-.07.97,0,.28.02.54.07.79s.13.47.25.66.28.35.48.46c.2.11.46.17.77.17.45,0,.83-.15,1.15-.44.31-.29.62-.76.93-1.38.06.28.13.54.22.77.13.33.3.58.53.77.22.19.5.28.83.28.4,0,.75-.15,1.05-.44.29-.28.57-.7.86-1.27.05.31.14.58.26.82.13.27.32.49.55.65.23.16.52.24.87.24.45,0,.83-.15,1.15-.44.29-.28.58-.7.87-1.26,0,.02.01.03.02.05.15.35.36.65.63.89.27.24.6.43.99.57.39.13.83.2,1.32.2.57,0,1.06-.09,1.47-.27s.76-.43,1.06-.74c.23-.25.44-.52.62-.84.02.06.04.11.07.17.16.35.39.66.68.9.29.25.65.44,1.07.57s.88.2,1.39.2c.55,0,1.06-.08,1.52-.24.46-.16.85-.38,1.17-.67.32-.29.57-.63.75-1.02.18-.4.27-.83.27-1.31,0-.44-.08-.84-.23-1.19v-.04ZM6.68,7.64h0c-.07.36-.18.69-.32.99s-.3.55-.49.74-.4.29-.63.29c-.28,0-.47-.14-.59-.41-.12-.27-.18-.6-.18-.99,0-.2.01-.41.04-.61.02-.11.04-.22.06-.33s.04-.22.06-.32c.06-.24.14-.47.23-.69.09-.22.2-.41.31-.58.12-.17.24-.3.39-.39.14-.1.29-.15.45-.15.27,0,.46.14.59.41.12.28.19.61.19,1.01,0,.33-.04.67-.11,1.03ZM43.69,7.71h0c-.07.34-.17.67-.3.96-.13.29-.29.53-.48.72-.18.19-.4.28-.64.28-.13,0-.24-.04-.34-.12-.1-.08-.18-.19-.23-.32-.06-.14-.1-.3-.13-.48-.03-.18-.04-.37-.04-.57,0-.32.03-.66.1-1.01.07-.35.17-.67.3-.96s.29-.53.48-.72c.19-.19.4-.28.64-.28.27,0,.46.15.57.44.12.29.17.64.17,1.04,0,.32-.03.66-.1,1.02Z"/>
  <path class="st0" d="M50.16,3.48c-.1-.22-.23-.42-.4-.59s-.36-.3-.59-.4-.46-.15-.72-.15-.49.05-.72.15-.42.23-.59.4-.3.36-.4.59-.15.46-.15.72.05.49.15.72c.1.22.23.42.4.58.17.17.36.3.59.4s.46.15.72.15.49-.05.72-.15.42-.23.59-.4c.17-.17.3-.36.4-.58.1-.22.15-.46.15-.72s-.05-.49-.15-.72ZM49.69,4.74c-.07.17-.17.32-.29.44s-.26.23-.43.3c-.16.07-.34.11-.52.11s-.36-.04-.52-.11c-.16-.07-.3-.17-.43-.3s-.22-.27-.29-.44-.1-.35-.1-.54.03-.37.1-.54.17-.32.29-.44.26-.23.43-.3.34-.11.52-.11.36.04.52.11.3.17.43.3.22.27.29.44c.07.17.1.35.1.54s-.03.37-.1.54Z"/>
  <path class="st0" d="M48.97,4.34c.05-.02.1-.05.14-.09.04-.04.08-.09.1-.16.03-.06.04-.15.04-.25,0-.16-.03-.27-.1-.36s-.14-.15-.23-.19c-.09-.04-.18-.06-.27-.07-.09,0-.16,0-.22,0h-.68v1.93h.51v-.74h.08l.44.74h.52l-.5-.77c.06,0,.11-.02.17-.04ZM48.72,3.93s-.04.05-.07.06c-.03.01-.06.02-.1.02-.03,0-.07,0-.1,0h-.2v-.42h.2s.06,0,.1,0c.04,0,.07.01.1.02.03.01.05.03.07.06.02.03.03.07.03.12s-.01.09-.03.12Z"/>
</svg>